<svg id="Layer_1" enable-background="new 0 0 256 256" height="512" viewBox="0 0 256 256" width="512" xmlns="http://www.w3.org/2000/svg"><path d="m36.696 62.84c-.654 0-1.256-.357-1.569-.931l-4.668-8.542-8.546-4.672c-.574-.314-.931-.916-.931-1.57s.357-1.256.931-1.57l8.546-4.671 4.668-8.542c.313-.574.915-.931 1.569-.931.654 0 1.255.357 1.569.93l4.675 8.543 8.54 4.672c.574.313.931.916.931 1.569s-.357 1.256-.931 1.569l-8.54 4.672-4.675 8.543c-.313.574-.914.931-1.569.931z" fill="#b8dff4"/><path d="m36.697 33.2 4.927 9.003 9 4.923-9 4.923-4.927 9.002-4.919-9.002-9.007-4.923 9.007-4.923zm0-3.578s0 0-.001 0c-1.308.001-2.511.715-3.139 1.863l-4.415 8.082-8.086 4.419c-1.148.627-1.862 1.832-1.862 3.14s.714 2.512 1.862 3.14l8.086 4.42 4.415 8.082c.628 1.148 1.831 1.862 3.139 1.863h.001c1.308 0 2.511-.713 3.139-1.86l4.424-8.084 8.081-4.421c1.147-.628 1.861-1.831 1.861-3.139s-.714-2.511-1.861-3.139l-8.081-4.42-4.424-8.084c-.628-1.149-1.832-1.862-3.139-1.862z" fill="#24202b"/><path d="m178.082 51.643c-.654 0-1.256-.357-1.569-.931l-3.549-6.492-6.486-3.548c-.574-.313-.931-.915-.931-1.569s.356-1.256.931-1.569l6.486-3.548 3.549-6.492c.314-.574.915-.931 1.569-.931s1.256.357 1.569.931l3.55 6.492 6.494 3.548c.574.313.932.916.932 1.57s-.358 1.256-.932 1.57l-6.494 3.548-3.55 6.492c-.313.572-.915.929-1.569.929z" fill="#b8dff4"/><path d="m178.082 28.35 3.801 6.952 6.955 3.8-6.955 3.8-3.801 6.952-3.8-6.952-6.946-3.8 6.946-3.8zm0-3.578c-1.309 0-2.513.714-3.14 1.862l-3.297 6.032-6.026 3.297c-1.147.628-1.861 1.832-1.861 3.139 0 1.308.714 2.511 1.861 3.139l6.026 3.297 3.297 6.031c.627 1.148 1.831 1.862 3.14 1.862 1.308 0 2.512-.714 3.14-1.862l3.297-6.031 6.035-3.297c1.148-.627 1.862-1.832 1.862-3.14 0-1.309-.715-2.513-1.862-3.14l-6.035-3.297-3.297-6.031c-.628-1.147-1.832-1.861-3.14-1.861z" fill="#24202b"/><path d="m183.351 82.418h-104.441v125.581c0 10.076-6.59 18.601-15.69 21.53.338.047.672.105 1.019.105h119.113c4.376 0 7.958-3.583 7.958-7.958v-131.3c-.001-4.375-3.583-7.958-7.959-7.958z" fill="#14a2ff"/><path d="m56.28 82.418h39.462v147.216h-39.462z" fill="#098dd6"/><path d="m183.351 231.423h-119.113c-5.375 0-9.747-4.373-9.747-9.747v-131.301c0-5.375 4.373-9.747 9.747-9.747h74.367c.988 0 1.789.801 1.789 1.789s-.801 1.789-1.789 1.789h-74.367c-3.401 0-6.169 2.768-6.169 6.169v131.301c0 3.401 2.768 6.168 6.169 6.168h119.113c3.401 0 6.169-2.767 6.169-6.168v-75.954c0-.988.801-1.789 1.789-1.789s1.789.801 1.789 1.789v75.954c0 5.374-4.372 9.747-9.747 9.747z" fill="#24202b"/><path d="m78.91 80.93c0-12.5-10.134-22.63-22.63-22.63s-22.625 10.13-22.625 22.63v127.068h45.255c0 .001 0-125.708 0-127.068z" fill="#14a2ff"/><path d="m63.433 59.474c-2.249-.75-4.65-1.174-7.153-1.174-12.496 0-22.625 10.13-22.625 22.63v127.068h14.302s0-125.709 0-127.068c-.001-9.998 6.488-18.465 15.476-21.456z" fill="#098dd6"/><path d="m78.91 209.788h-45.256c-.988 0-1.789-.801-1.789-1.789v-127.069c0-13.465 10.952-24.419 24.415-24.419 13.465 0 24.419 10.954 24.419 24.419v127.068c0 .989-.802 1.79-1.789 1.79zm-43.467-3.579h41.677v-125.279c0-11.492-9.349-20.841-20.841-20.841-11.489 0-20.836 9.349-20.836 20.841z" fill="#24202b"/><path d="m78.91 207.999c0 12.497-10.134 22.626-22.63 22.626s-22.625-10.129-22.625-22.626c0-12.499 10.13-22.629 22.625-22.629 12.496 0 22.63 10.129 22.63 22.629z" fill="#098dd6"/><g fill="#24202b"><path d="m56.28 232.414c-13.462 0-24.415-10.953-24.415-24.415 0-13.464 10.952-24.418 24.415-24.418 13.465 0 24.419 10.954 24.419 24.418 0 13.462-10.954 24.415-24.419 24.415zm0-45.255c-11.489 0-20.836 9.349-20.836 20.84 0 11.49 9.347 20.837 20.836 20.837 11.492 0 20.841-9.347 20.841-20.837 0-11.492-9.35-20.84-20.841-20.84z"/><path d="m45.673 208.537c-.988 0-1.789-.801-1.789-1.789 0-6.837 5.561-12.399 12.396-12.399.988 0 1.789.801 1.789 1.789s-.801 1.789-1.789 1.789c-4.862 0-8.818 3.957-8.818 8.821 0 .987-.801 1.789-1.789 1.789z"/><path d="m56.28 221.646c-.988 0-1.789-.801-1.789-1.789s.801-1.789 1.789-1.789c4.867 0 8.827-3.958 8.827-8.822 0-.988.801-1.789 1.789-1.789s1.789.801 1.789 1.789c0 6.838-5.565 12.4-12.405 12.4z"/><path d="m60.274 208.742c0 2.203-1.788 3.99-3.995 3.99-2.199 0-3.986-1.787-3.986-3.99s1.787-3.991 3.986-3.991c2.208 0 3.995 1.788 3.995 3.991z"/><path d="m162.828 213.133h-79.94c-3.18 0-5.767-2.587-5.767-5.768v-101.941c0-3.181 2.587-5.768 5.767-5.768h79.94c3.181 0 5.768 2.587 5.768 5.768v101.941c0 3.181-2.587 5.768-5.768 5.768zm-79.94-109.899c-1.207 0-2.189.982-2.189 2.19v101.941c0 1.208.982 2.189 2.189 2.189h79.94c1.207 0 2.189-.982 2.189-2.189v-101.941c0-1.208-.982-2.19-2.189-2.19z"/></g><path d="m166.807 121.382c0 2.188-1.788 3.979-3.979 3.979h-15.954c-2.192 0-3.979-1.79-3.979-3.979v-15.958c0-2.188 1.786-3.979 3.979-3.979h15.954c2.191 0 3.979 1.792 3.979 3.979z" fill="#fa759e"/><path d="m162.828 127.15h-15.954c-3.181 0-5.768-2.587-5.768-5.768v-15.958c0-3.181 2.587-5.768 5.768-5.768h15.954c3.181 0 5.768 2.587 5.768 5.768v15.958c0 3.18-2.587 5.768-5.768 5.768zm-15.954-23.916c-1.207 0-2.189.982-2.189 2.19v15.958c0 1.208.982 2.189 2.189 2.189h15.954c1.207 0 2.189-.982 2.189-2.189v-15.958c0-1.208-.982-2.19-2.189-2.19z" fill="#24202b"/><path d="m166.807 206.748c0 2.188-1.788 3.979-3.979 3.979h-15.954c-2.192 0-3.979-1.791-3.979-3.979v-15.958c0-2.188 1.786-3.979 3.979-3.979h15.954c2.191 0 3.979 1.791 3.979 3.979z" fill="#fa759e"/><path d="m162.828 212.516h-15.954c-3.181 0-5.768-2.588-5.768-5.769v-15.957c0-3.18 2.587-5.768 5.768-5.768h15.954c3.181 0 5.768 2.587 5.768 5.768v15.958c0 3.18-2.587 5.768-5.768 5.768zm-15.954-23.916c-1.207 0-2.189.982-2.189 2.189v15.958c0 1.208.982 2.19 2.189 2.19h15.954c1.207 0 2.189-.982 2.189-2.19v-15.957c0-1.208-.982-2.189-2.189-2.189h-15.954z" fill="#24202b"/><path d="m139.646 152.172-53.844-31.088 9.939 5.739v58.656l-9.939 5.739 53.844-31.088c3.792-2.189 3.792-5.771 0-7.958z" fill="#7fd57a"/><path d="m95.742 126.822-9.939-5.739c-3.793-2.189-6.893-.397-6.893 3.978v62.176c0 4.376 3.1 6.167 6.893 3.979l9.939-5.739z" fill="#1d966a"/><path d="m82.728 193.934c-.97 0-1.883-.23-2.689-.696-1.854-1.071-2.918-3.258-2.918-6v-62.176c0-2.742 1.064-4.929 2.918-6 1.854-1.072 4.282-.899 6.658.471l53.844 31.089c2.375 1.37 3.738 3.385 3.738 5.527s-1.362 4.158-3.738 5.529l-53.844 31.088c-1.344.776-2.705 1.168-3.969 1.168zm.015-71.995c-.348 0-.657.073-.915.222-.718.415-1.129 1.472-1.129 2.901v62.176c0 1.429.412 2.487 1.129 2.901.718.415 1.84.244 3.081-.472l53.843-31.087c1.239-.715 1.949-1.601 1.949-2.43s-.71-1.714-1.948-2.428l-53.845-31.089c-.795-.459-1.542-.694-2.165-.694z" fill="#24202b"/><path d="m186.467 107.048s-.225-.093-.333-.155c-.109-.054-.319-.182-.319-.182-12.434-6.699-17.641-19.409-17.641-19.409l13.071-11.691 16.218 8.284.661.334 16.226 8.288-1.818 17.441c-.001.001-13.344 3.238-26.065-2.91z" fill="#ffdc00"/><path d="m186.467 107.048s-.225-.093-.333-.155c-.109-.054-.319-.182-.319-.182-12.434-6.699-17.641-19.409-17.641-19.409l13.071-11.691 16.218 8.284.661.334 16.226 8.288-1.818 17.441c-.001.001-13.344 3.238-26.065-2.91z" fill="#ffdc00"/><path d="m191.076 108.878c-1.531-.489-3.07-1.088-4.609-1.83 0 0-.225-.093-.333-.155-.109-.054-.319-.182-.319-.182-12.434-6.699-17.641-19.409-17.641-19.409l13.071-11.691 9.45 4.822-13.072 11.691s4.026 9.827 13.453 16.754z" fill="#e0bb07"/><path d="m198.956 84.706-2.487-1.271-19.475-9.951 4.693-9.189s9.458-7.907 18.83-3.119l14.229-32.297s2.045-5.813 10.848-2.464c0 0 .903.312 1.3.541.411.186 1.188.73 1.188.73 7.88 5.171 4.368 10.239 4.368 10.239l-17.828 30.455c9.373 4.787 8.502 17.081 8.502 17.081l-4.693 9.193z" fill="#ff8b38"/><path d="m222.424 32.799-14.229 32.301c-9.372-4.787-18.829 3.12-18.829 3.12l-4.694 9.189-7.678-3.925 4.693-9.189s9.458-7.907 18.83-3.119l14.229-32.297s2.045-5.813 10.848-2.464c0 0 .903.312 1.3.541.411.186 1.188.73 1.188.73.94.614 1.702 1.229 2.34 1.826-6.405-1.22-7.998 3.287-7.998 3.287z" fill="#e57225"/><path d="m203.874 112.613c-5.073 0-11.664-.808-18.161-3.942-.094-.042-.265-.118-.394-.185-.16-.082-.436-.247-.436-.247-12.768-6.876-18.143-19.715-18.365-20.258-.287-.701-.102-1.507.463-2.012l13.071-11.691c.55-.493 1.35-.595 2.006-.26l33.104 16.906c.659.336 1.043 1.043.966 1.779l-1.818 17.441c-.078.752-.622 1.375-1.357 1.553-.288.07-3.891.916-9.079.916zm-33.518-24.863c1.571 3.163 6.722 12.222 16.307 17.385.089.051.201.121.273.158.021.012.069.037.091.049.031.015.115.048.124.052.031.013.063.027.094.042 9.809 4.739 20.162 3.599 23.645 3.016l1.554-14.901-30.92-15.791z" fill="#24202b"/><path d="m218.43 96.443c-.28 0-.56-.066-.813-.196l-41.437-21.169c-.879-.45-1.229-1.527-.778-2.407l4.693-9.189c.109-.215.261-.405.445-.559.399-.334 9.388-7.706 19.061-4.102l13.489-30.619c.194-.501 1.148-2.622 3.732-3.821 2.526-1.171 5.69-1.051 9.407.363.188.064.971.342 1.481.621.516.249 1.193.714 1.396.857 3.281 2.152 5.236 4.646 5.769 7.383.544 2.798-.615 4.815-.907 5.266l-16.901 28.872c8.59 5.728 7.877 17.326 7.84 17.845-.017.239-.082.473-.19.687l-4.693 9.193c-.216.423-.591.742-1.042.889-.181.057-.367.086-.552.086zm-39.029-23.737 20.368 10.408 17.881 9.133 3.7-7.248c.036-1.892-.169-11.259-7.543-15.026-.438-.224-.766-.619-.903-1.091-.139-.472-.076-.981.173-1.406l17.828-30.455c.023-.04.048-.078.073-.115.226-.352 2.17-3.754-3.879-7.724-.379-.264-.808-.534-.943-.596-.053-.024-.107-.052-.157-.081-.143-.082-.648-.282-.989-.399-2.791-1.061-5.083-1.221-6.681-.48-1.425.661-1.892 1.835-1.896 1.847-.015.043-.032.085-.051.127l-14.229 32.297c-.198.451-.573.799-1.037.964-.464.166-.976.131-1.413-.092-7.375-3.768-15.084 1.548-16.604 2.692z" fill="#24202b"/><path d="m176.691 99.653c-.48 0-.96-.193-1.312-.573-.671-.725-.628-1.856.097-2.528l15.543-14.401c.723-.671 1.855-.629 2.528.097.671.725.628 1.856-.097 2.528l-15.543 14.401c-.344.318-.78.476-1.216.476z" fill="#24202b"/><path d="m198.988 110.668c-.11 0-.222-.01-.334-.032-.971-.184-1.609-1.119-1.426-2.09l3.723-19.688c.184-.971 1.117-1.614 2.09-1.425.971.184 1.609 1.119 1.426 2.09l-3.723 19.688c-.162.858-.913 1.457-1.756 1.457z" fill="#24202b"/></svg>