<svg id="Capa_1" enable-background="new 0 0 512 512" height="512" viewBox="0 0 512 512" width="512" xmlns="http://www.w3.org/2000/svg"><g><g><g><path d="m338.951 231.087c-8.285 0-15.002-6.717-15.002-15.002v-93.496c0-3.979 1.58-7.795 4.394-10.608l63.696-63.696c5.858-5.859 15.358-5.859 21.216 0 5.859 5.859 5.859 15.357 0 21.216l-59.302 59.303v87.281c0 8.285-6.717 15.002-15.002 15.002z" fill="#b2b0bc"/></g><g><path d="m350.388 414.149c47.116 0 85.448-38.332 85.448-85.448 0-47.117-38.332-85.448-85.448-85.448v-30.005c63.66 0 115.452 51.792 115.452 115.453 0 63.66-51.792 115.452-115.452 115.452z" fill="#4f4c5f"/></g><g fill="#423e4f"><path d="m350.388 243.253c18.982 0 36.533 6.229 50.732 16.741v-31.743c0-1.102-.031-2.196-.088-3.284-15.299-7.5-32.487-11.719-50.644-11.719z"/><path d="m401.12 429.151v-31.744c-14.199 10.512-31.749 16.741-50.732 16.741v30.005c18.157 0 35.345-4.219 50.644-11.719.057-1.087.088-2.181.088-3.283z"/></g><path d="m338.95 196.081c-17.767 0-32.17 14.403-32.17 32.17v200.9c0 17.767 14.403 32.17 32.17 32.17 17.767 0 32.17-14.403 32.17-32.17v-200.9c0-17.767-14.403-32.17-32.17-32.17z" fill="#ff748f"/><path d="m336.781 429.151v-200.9c0-12.348 6.961-23.066 17.17-28.458-4.48-2.366-9.582-3.711-15-3.711-17.767 0-32.17 14.403-32.17 32.169v200.9c0 17.767 14.403 32.17 32.17 32.17 5.418 0 10.52-1.346 15-3.712-10.209-5.392-17.17-16.11-17.17-28.458z" fill="#fd5f7e"/><path d="m371.12 322.73h-84.795v52.431h84.795c14.478 0 26.216-11.737 26.216-26.216-.001-14.478-11.738-26.215-26.216-26.215z" fill="#e4e4e4"/><path d="m413.255 48.285c-5.858-5.859-15.358-5.859-21.216 0l-29.352 29.352c1.326 1.845 2.802 3.6 4.44 5.238l11.536 11.537c1.639 1.639 3.395 3.115 5.24 4.441l29.352-29.353c5.859-5.858 5.859-15.357 0-21.215z" fill="#a19dae"/><path d="m449.804 19.572-7.836-7.836c-5.648-5.648-14.805-5.648-20.452 0l-33.175 33.174c-4.626 4.626-4.626 12.126 0 16.752l11.536 11.536c4.626 4.626 12.126 4.626 16.752 0l33.175-33.175c5.647-5.647 5.647-14.803 0-20.451z" fill="#4f4c5f"/><g><path d="m242.641 144.158h-37.932v-45.581c0-9.35-7.607-16.957-16.957-16.957h-22.564c-9.35 0-16.957 7.607-16.957 16.957v45.581h-37.933v-45.581c0-30.266 24.623-54.889 54.889-54.889h22.564c30.266 0 54.889 24.624 54.889 54.889v45.581z" fill="#4f4c5f"/></g><g fill="#423e4f"><path d="m148.232 98.576c0-.982.102-1.94.263-2.877h-38.12c-.049.953-.076 1.913-.076 2.877v45.582h37.933z"/><path d="m204.709 98.576v45.582h37.932v-45.582c0-.965-.026-1.924-.076-2.877h-38.12c.162.938.264 1.895.264 2.877z"/></g><path d="m243.77 125.699h-134.599c-10.839 0-17.603 11.692-12.269 21.128 5.678 10.044 14.436 17.196 20.707 21.393 4.748 3.177 7.609 8.495 7.609 14.207v44.496h102.502v-44.496c0-5.713 2.862-11.03 7.609-14.207 6.272-4.197 15.029-11.349 20.707-21.393 5.337-9.436-1.427-21.128-12.266-21.128z" fill="#ff748f"/><path d="m286.325 322.73h50.456v52.431h-50.456z" fill="#d6d6d4"/><path d="m306.781 285.172v139.398l-130.311 39.965-130.31-39.965v-139.398l130.31-32.953z" fill="#e4e4e4"/><path d="m46.16 285.172h30v139.398h-30z" fill="#d6d6d4"/><path d="m306.781 268.048v17.124h-260.621v-17.124c0-34.681 28.114-62.806 62.806-62.806h135.008c34.693 0 62.807 28.125 62.807 62.806z" fill="#ffa875"/><path d="m138.966 205.243h-30c-34.692 0-62.806 28.124-62.806 62.806v17.124h30v-17.124c0-34.682 28.114-62.806 62.806-62.806z" fill="#ff995d"/><path d="m306.781 424.57v17.135c0 34.681-28.114 62.795-62.806 62.795h-135.009c-34.692 0-62.806-28.114-62.806-62.795v-17.135z" fill="#ffa875"/><path d="m76.16 441.705v-17.135h-30v17.135c0 34.682 28.114 62.795 62.806 62.795h30c-34.692 0-62.806-28.113-62.806-62.795z" fill="#ff995d"/><g><g><g><ellipse cx="96.225" cy="368.221" fill="#ff97c0" rx="29.609" ry="23.579"/></g><g><ellipse cx="256.716" cy="368.221" fill="#ff97c0" rx="29.609" ry="23.579"/></g></g></g></g><g><path d="m120.981 345.523v-12.104c0-4.142-3.358-7.5-7.5-7.5s-7.5 3.358-7.5 7.5v12.104c0 4.143 3.358 7.5 7.5 7.5s7.5-3.358 7.5-7.5z"/><path d="m246.96 345.523v-12.104c0-4.142-3.358-7.5-7.5-7.5s-7.5 3.358-7.5 7.5v12.104c0 4.143 3.358 7.5 7.5 7.5s7.5-3.358 7.5-7.5z"/><path d="m198.731 350.09c2.722-3.123 2.396-7.86-.726-10.582-3.123-2.722-7.861-2.397-10.582.726-2.766 3.173-6.758 4.993-10.953 4.993s-8.187-1.82-10.952-4.993c-2.721-3.123-7.459-3.448-10.582-.727s-3.448 7.458-.727 10.582c11.78 13.518 32.754 13.505 44.522.001z"/><path d="m409.25 84.111c4.616-.237 9.164-2.092 12.681-5.609l33.175-33.175c8.563-8.563 8.563-22.496 0-31.059l-7.835-7.836c-8.747-8.747-22.654-8.405-31.059 0l-33.175 33.174c-3.518 3.518-5.373 8.066-5.61 12.682l-54.388 54.388c-4.251 4.25-6.592 9.901-6.592 15.912v73.017c-9.499 6.568-15.999 17.167-17.017 29.306-12.876-16.517-32.94-27.169-55.457-27.169h-8.753v-15.315c0-3.2 1.6-6.18 4.281-7.974 6.996-4.682 16.676-12.635 23.064-23.935 3.842-6.795 3.79-14.872-.138-21.605-2.802-4.803-7.178-8.21-12.287-9.764v-20.572c0-34.402-27.988-62.389-62.389-62.389h-22.564c-34.401 0-62.389 27.987-62.389 62.389v20.573c-5.109 1.553-9.485 4.96-12.287 9.763-3.928 6.734-3.98 14.811-.139 21.606 6.389 11.301 16.069 19.253 23.065 23.935 2.681 1.794 4.281 4.775 4.281 7.974v15.315h-8.753c-38.767 0-70.306 31.539-70.306 70.306v81.783c0 4.142 3.358 7.5 7.5 7.5s7.5-3.358 7.5-7.5v-57.159h245.621v124.398h-245.62v-37.239c0-4.142-3.358-7.5-7.5-7.5s-7.5 3.358-7.5 7.5v61.874c0 38.761 31.539 70.295 70.306 70.295h135.008c32.992 0 60.734-22.844 68.272-53.54 18.571 16.935 47.801 12.507 60.701-8.892 58.023-10.82 100.393-61.745 100.393-120.868 0-25.786-7.935-50.492-22.946-71.448-2.412-3.367-7.097-4.141-10.465-1.73-3.367 2.413-4.142 7.097-1.729 10.465 13.176 18.393 20.14 40.079 20.14 62.712 0 49.351-33.476 91.721-79.899 104.251.334-3.516.105-7.465.179-15.696 38.389-12.208 64.715-47.816 64.715-88.555s-26.326-76.348-64.715-88.556c-.073-8.193.156-12.168-.179-15.696 14.856 4.008 28.767 11.202 40.746 21.137 3.188 2.644 7.917 2.203 10.561-.986 2.645-3.188 2.203-7.917-.985-10.561-16.137-13.382-35.366-22.395-55.816-26.208-2.921-4.845-6.851-9.015-11.493-12.225v-63.695zm-15.606-33.897 33.175-33.175c2.721-2.721 7.124-2.721 9.845 0l7.836 7.836c2.714 2.714 2.714 7.131 0 9.845l-33.175 33.175c-1.902 1.902-4.809 1.425-6.145 0-1.14-1.14-6.085-6.085-5.769-5.769-6.062-6.106-6.658-6.281-6.968-8.101-.23-1.343.165-2.775 1.201-3.811zm-79.363 178.037c0-9.665 5.63-18.29 14.215-22.338 12.526-5.876 27.432-.255 33.026 12.398 3.193 7.22 1.821 5.594 2.099 96.918h-49.339c-.001-10.046-.001-86.978-.001-86.978zm56.839 139.41h-56.839v-37.431h56.839c10.32 0 18.715 8.396 18.715 18.716 0 10.319-8.395 18.715-18.715 18.715zm-253.321-269.084c0-26.13 21.259-47.389 47.389-47.389h22.564c26.13 0 47.389 21.259 47.389 47.389v19.623h-22.933v-19.623c0-13.485-10.971-24.457-24.457-24.457h-22.564c-13.485 0-24.456 10.971-24.456 24.457v19.623h-22.933v-19.623zm37.933 19.622v-19.622c0-5.214 4.242-9.457 9.456-9.457h22.564c5.214 0 9.457 4.242 9.457 9.457v19.623h-41.477zm-33.951 43.788c-5.645-3.777-13.41-10.114-18.35-18.851-1.71-3.026-.543-5.669.038-6.665.574-.984 2.278-3.272 5.702-3.272h1.128 37.933 56.477 37.933 1.128c3.424 0 5.129 2.288 5.703 3.272.581.996 1.748 3.639.037 6.665-4.939 8.736-12.705 15.073-18.349 18.851-6.85 4.583-10.938 12.224-10.938 20.44v15.315h-87.502v-15.315c-.002-8.215-4.091-15.856-10.94-20.44zm-68.121 115.685v-9.624c0-30.496 24.81-55.306 55.306-55.306h16.253 102.502 16.253c30.496 0 55.306 24.811 55.306 55.306v9.624zm190.314 219.328h-135.008c-30.496 0-55.306-24.805-55.306-55.295v-9.635h245.621v9.635c0 30.49-24.811 55.295-55.307 55.295zm94.976-43.179c-13.603 0-24.669-11.067-24.669-24.669v-46.491h49.339c.068 51.338.468 50.635-2.104 56.443-3.835 8.658-12.504 14.717-22.566 14.717zm89.385-125.12c0 32.526-20.014 61.15-49.715 72.655v-19.546c14.991-3.42 26.215-16.852 26.215-32.864 0-16.013-11.224-29.444-26.215-32.864v-60.035c29.701 11.504 49.715 40.128 49.715 72.654zm-96.887-139.401v-66.711c0-2.004.78-3.888 2.198-5.305l49.854-49.855c.1.1 2.178 2.178 10.61 10.609l-45.46 45.462c-1.407 1.406-2.197 3.314-2.197 5.303v60.498c-.054-.011-6.909-1.579-15.005-.001z"/></g></g></svg>