<svg height="512" viewBox="0 0 64 64" width="512" xmlns="http://www.w3.org/2000/svg"><g id="washing_machine-loundry_basket-basket-cleaning-woman" data-name="washing machine-loundry basket-basket-cleaning-woman"><path d="m57 9a4 4 0 1 1 0 8 2.006 2.006 0 0 1 -2-2v-6z" fill="#ffcd00"/><path d="m59 23v12a2.006 2.006 0 0 1 -2 2 2.08 2.08 0 0 1 -.71-.13 2.014 2.014 0 0 1 -1.29-1.87v-14h2a2.006 2.006 0 0 1 2 2z" fill="#ffc477"/><path d="m59 23v12a2.006 2.006 0 0 1 -2 2 2.08 2.08 0 0 1 -.71-.13 2.591 2.591 0 0 1 -.29-.14 2 2 0 0 0 1-1.73v-12a2.006 2.006 0 0 0 -2-2h2a2.006 2.006 0 0 1 2 2z" fill="#ffa733"/><path d="m56.29 36.87 2.71 8.13h-18l2.71-8.13a2.014 2.014 0 0 0 1.29-1.87v-2h10v2a2.014 2.014 0 0 0 1.29 1.87z" fill="#c0ab91"/><path d="m56 45v14a2 2 0 0 1 -4 0v-14z" fill="#ffc477"/><path d="m55 21v12h-10v-12h3 4z" fill="#f072ae"/><path d="m55 9v3a5.029 5.029 0 0 1 -3 4.59 5.083 5.083 0 0 1 -4 0 5.029 5.029 0 0 1 -3-4.59v-3z" fill="#ffc477"/><path d="m55 9v3a5.029 5.029 0 0 1 -3 4.59 5.106 5.106 0 0 1 -2 .41 4.712 4.712 0 0 1 -1-.1 4.838 4.838 0 0 0 1-.31 5.029 5.029 0 0 0 3-4.59v-3z" fill="#ffa733"/><path d="m55 8v1h-10v-1a5 5 0 1 1 10 0z" fill="#ffcd00"/><path d="m61 13a3.995 3.995 0 0 1 -4 4 1.94 1.94 0 0 1 -1.22-.42 4.106 4.106 0 0 0 1.05-.75 4 4 0 0 0 -1.83-6.7v-.13h2a4 4 0 0 1 4 4z" fill="#ebbf00"/><path d="m55 8v1h-3v-1a5.022 5.022 0 0 0 -1.46-3.54 5.15 5.15 0 0 0 -2.04-1.24 5.335 5.335 0 0 1 1.5-.22 4.985 4.985 0 0 1 5 5z" fill="#ebbf00"/><g fill="#ffc477"><path d="m52 16.59v4.41h-4v-4.41a5.083 5.083 0 0 0 4 0z"/><path d="m48 45v14a2 2 0 0 1 -4 0v-14z"/><path d="m45 33v2a2.014 2.014 0 0 1 -1.29 1.87 2.08 2.08 0 0 1 -.71.13 2.006 2.006 0 0 1 -2-2v-12a2.006 2.006 0 0 1 2-2h2z"/></g><path d="m45 12v3a2.006 2.006 0 0 1 -2 2 4 4 0 1 1 0-8h2z" fill="#ffcd00"/><path d="m35 37v22a2.006 2.006 0 0 1 -2 2h-28a2.006 2.006 0 0 1 -2-2v-22z" fill="#d8d7da"/><path d="m35 27v10h-32v-10a2.006 2.006 0 0 1 2-2h28a2.006 2.006 0 0 1 2 2z" fill="#898890"/><path d="m35 37v22a2.006 2.006 0 0 1 -2 2h-5a2.006 2.006 0 0 0 2-2v-22z" fill="#c6c5ca"/><path d="m35 27v10h-5v-10a2.006 2.006 0 0 0 -2-2h5a2.006 2.006 0 0 1 2 2z" fill="#57565c"/><path d="m28 9-2 16h-14l-2-16z" fill="#c0ab91"/><path d="m28 9-2 16h-4l2-16z" fill="#a78966"/><path d="m15 7h8v8h-8z" fill="#fee9ab"/><path d="m19 7h4v8h-4z" fill="#ffde55"/><circle cx="17" cy="31" fill="#9cdd05" r="2"/><circle cx="9" cy="31" fill="#ff3051" r="2"/><path d="m25.19 48.75 1.65 1.86a8 8 0 0 1 -15.84-1.61 8.466 8.466 0 0 1 .08-1.13l.66.35a2.813 2.813 0 0 1 .86.78 2 2 0 0 0 1.6.96 2.018 2.018 0 0 0 1.6-.96 1.959 1.959 0 0 1 1.59-.96 1.961 1.961 0 0 1 1.6.96 2.018 2.018 0 0 0 1.6.96 2 2 0 0 0 1.6-.96 1.992 1.992 0 0 1 1.61-.96 1.771 1.771 0 0 1 1.39.71z" fill="#006df0"/><path d="m27 49a8.466 8.466 0 0 1 -.08 1.13l-.67-.35a2.894 2.894 0 0 1 -.85-.78 1.813 1.813 0 0 0 -3.2 0 1.822 1.822 0 0 1 -3.21 0 2 2 0 0 0 -1.6-.96 2 2 0 0 0 -1.59.96 1.99 1.99 0 0 1 -1.6.96 1.728 1.728 0 0 1 -1.39-.71l-1.65-1.86a8 8 0 0 1 15.84 1.61z" fill="#44ffe8"/><path d="m9 28a3 3 0 1 0 3 3 3 3 0 0 0 -3-3zm0 4a1 1 0 1 1 1-1 1 1 0 0 1 -1 1z"/><path d="m17 28a3 3 0 1 0 3 3 3 3 0 0 0 -3-3zm0 4a1 1 0 1 1 1-1 1 1 0 0 1 -1 1z"/><path d="m22 28h2v2h-2z"/><path d="m22 32h2v2h-2z"/><path d="m26 28h2v2h-2z"/><path d="m26 32h2v2h-2z"/><path d="m30 28h2v2h-2z"/><path d="m30 32h2v2h-2z"/><path d="m33 24h-5.87l1.86-14.88a.968.968 0 0 0 -.24-.78.981.981 0 0 0 -.75-.34h-4v-1a1 1 0 0 0 -1-1h-8a1 1 0 0 0 -1 1v1h-4a.981.981 0 0 0 -.75.34.968.968 0 0 0 -.24.78l1.86 14.88h-5.87a3.009 3.009 0 0 0 -3 3v32a3.009 3.009 0 0 0 3 3h28a3.009 3.009 0 0 0 3-3v-32a3.009 3.009 0 0 0 -3-3zm-17-16h6v6h-6zm-2 2v5a1 1 0 0 0 1 1h8a1 1 0 0 0 1-1v-5h2.87l-1.75 14h-12.24l-1.75-14zm20 49a1 1 0 0 1 -1 1h-28a1 1 0 0 1 -1-1v-21h30zm0-23h-30v-9a1 1 0 0 1 1-1h28a1 1 0 0 1 1 1z"/><path d="m19 58a9 9 0 1 0 -9-9 9.011 9.011 0 0 0 9 9zm0-2a7 7 0 0 1 -6.933-6.085 2.732 2.732 0 0 0 2.133 1.045 2.954 2.954 0 0 0 2.367-1.32c.4-.478.532-.6.831-.6s.432.122.83.6a2.786 2.786 0 0 0 4.738 0c.4-.479.534-.6.833-.6s.435.122.835.6a3.884 3.884 0 0 0 1.156 1.03 7.006 7.006 0 0 1 -6.79 5.33zm0-14a7.005 7.005 0 0 1 6.934 6.089 2.743 2.743 0 0 0 -2.134-1.049 2.96 2.96 0 0 0 -2.369 1.319c-.4.479-.534.6-.834.6s-.432-.122-.831-.6a2.954 2.954 0 0 0 -2.366-1.319 2.955 2.955 0 0 0 -2.368 1.32c-.4.478-.531.6-.83.6s-.431-.122-.83-.6a3.886 3.886 0 0 0 -1.157-1.029 7.005 7.005 0 0 1 6.785-5.331z"/><path d="m54.26 16.22a3.018 3.018 0 0 0 2.74 1.78 5 5 0 0 0 0-10h-1a6 6 0 0 0 -12 0h-1a5 5 0 0 0 0 10 3.018 3.018 0 0 0 2.74-1.78 6.308 6.308 0 0 0 1.26.97v2.81h-4a3.009 3.009 0 0 0 -3 3v12a2.992 2.992 0 0 0 2.31 2.91l-2.26 6.77a1 1 0 0 0 .14.9.983.983 0 0 0 .81.42h2v13a3 3 0 0 0 6 0v-13h2v13a3 3 0 0 0 6 0v-13h2a.983.983 0 0 0 .81-.42 1 1 0 0 0 .14-.9l-2.26-6.77a2.992 2.992 0 0 0 2.31-2.91v-12a3.009 3.009 0 0 0 -3-3h-4v-2.81a6.308 6.308 0 0 0 1.26-.97zm1.74-6.22h1a3 3 0 0 1 0 6 1 1 0 0 1 -1-1zm-12 5a1 1 0 0 1 -1 1 3 3 0 0 1 0-6h1zm6-11a4 4 0 0 1 4 4h-8a4 4 0 0 1 4-4zm-8 31v-12a1 1 0 0 1 1-1h1v13a1 1 0 0 1 -2 0zm5 24a1 1 0 0 1 -2 0v-13h2zm8 0a1 1 0 0 1 -2 0v-13h2zm1-37h1a1 1 0 0 1 1 1v12a1 1 0 0 1 -2 0zm-.53 15.57 2.14 6.43h-15.22l2.14-6.43a3 3 0 0 0 1.47-2.57v-1h8v1a3 3 0 0 0 1.47 2.57zm-1.47-15.57v10h-8v-10zm-5-2v-2.09a5.6 5.6 0 0 0 2 0v2.09zm1-4a4 4 0 0 1 -4-4v-2h8v2a4 4 0 0 1 -4 4z"/></g></svg>