<svg height="412pt" viewBox="0 -19 412.28 412" width="412pt" xmlns="http://www.w3.org/2000/svg"><g fill="#122436"><path d="m49.105469 100.871094v28.835937h10v-34.820312h-10zm0 0"/><path d="m49.105469 51.871094h10v9.773437h-10zm0 0"/><path d="m49.105469 73.378906h10v9.773438h-10zm0 0"/><path d="m49.105469 30.136719h10v10h-10zm0 0"/><path d="m336.25 30.136719h10.042969v10h-10.042969zm0 0"/><path d="m292.066406 30.136719h10.042969v10h-10.042969zm0 0"/><path d="m358.339844 30.136719h10.042968v10h-10.042968zm0 0"/><path d="m115.339844 30.136719h10.039062v10h-10.039062zm0 0"/><path d="m314.15625 30.136719h10.042969v10h-10.042969zm0 0"/><path d="m137.429688 30.136719h10.042968v10h-10.042968zm0 0"/><path d="m71.15625 30.136719h10.042969v10h-10.042969zm0 0"/><path d="m93.246094 30.136719h10.042968v10h-10.042968zm0 0"/><path d="m380.433594 30.136719h10v10h-10zm0 0"/><path d="m380.433594 51.726562h10v9.65625h-10zm0 0"/><path d="m380.433594 157.949219h10v9.65625h-10zm0 0"/><path d="m380.433594 136.703125h10v9.65625h-10zm0 0"/><path d="m380.433594 179.195312h10v9.65625h-10zm0 0"/><path d="m380.433594 115.460938h10v9.65625h-10zm0 0"/><path d="m380.433594 94.214844h10v9.65625h-10zm0 0"/><path d="m380.433594 72.96875h10v9.65625h-10zm0 0"/><path d="m380.433594 242.929688h10v9.65625h-10zm0 0"/><path d="m380.433594 221.683594h10v9.65625h-10zm0 0"/><path d="m380.433594 200.4375h10v9.65625h-10zm0 0"/><path d="m269.976562 30.136719h-110.457031v10h120.5v-10zm0 0"/><path d="m380.433594 264.171875v26.242187h10v-27.226562h-10zm0 0"/></g><path d="m240.394531 25.765625c-6.203125 0-11.25-5.046875-11.25-11.25 0-5.179687-4.199219-9.378906-9.375-9.378906s-9.378906 4.199219-9.378906 9.378906c0 6.203125-5.042969 11.25-11.25 11.25-5.175781 0-9.375 4.195313-9.375 9.371094s4.199219 9.378906 9.375 9.378906c6.207031 0 11.25 5.042969 11.25 11.25 0 5.175781 4.199219 9.371094 9.378906 9.371094 5.175781 0 9.375-4.195313 9.375-9.371094 0-6.207031 5.046875-11.25 11.25-11.25 5.175781 0 9.375-4.199219 9.375-9.378906 0-5.175781-4.199219-9.371094-9.375-9.371094zm0 0" fill="#ffcc34"/><path d="m250.558594 24.972656c-2.585938-2.59375-6.210938-4.210937-10.164063-4.207031-1.730469-.003906-3.265625-.695313-4.414062-1.835937-1.140625-1.148438-1.832031-2.683594-1.835938-4.414063.003907-3.957031-1.613281-7.582031-4.207031-10.164063-2.585938-2.59375-6.214844-4.214843-10.164062-4.210937-3.957032-.003906-7.578126 1.617187-10.164063 4.210937-2.59375 2.585938-4.214844 6.207032-4.210937 10.164063-.003907 1.730469-.691407 3.265625-1.835938 4.414063-1.148438 1.140624-2.683594 1.832031-4.414062 1.835937-3.953126-.003906-7.578126 1.613281-10.164063 4.207031-2.59375 2.585938-4.214844 6.210938-4.210937 10.164063 0 3.957031 1.617187 7.578125 4.210937 10.164062 2.585937 2.59375 6.210937 4.214844 10.164063 4.210938 1.730468.003906 3.265624.691406 4.414062 1.835937 1.144531 1.148438 1.832031 2.683594 1.835938 4.414063-.003907 3.953125 1.617187 7.578125 4.210937 10.164062 2.585937 2.59375 6.207031 4.210938 10.164063 4.210938 3.953124 0 7.578124-1.617188 10.164062-4.210938 2.59375-2.585937 4.210938-6.210937 4.207031-10.164062.003907-1.730469.695313-3.265625 1.835938-4.414063 1.148437-1.144531 2.683593-1.832031 4.414062-1.835937 3.957031.003906 7.582031-1.617188 10.164063-4.210938 2.59375-2.585937 4.214844-6.207031 4.210937-10.164062.003907-3.953125-1.617187-7.578125-4.210937-10.164063zm-7.070313 13.257813c-.808593.800781-1.871093 1.28125-3.09375 1.285156-4.472656-.003906-8.5625 1.832031-11.488281 4.761719-2.929688 2.921875-4.765625 7.011718-4.761719 11.488281-.003906 1.222656-.484375 2.285156-1.28125 3.09375-.808593.796875-1.871093 1.277344-3.09375 1.28125-1.222656-.003906-2.289062-.484375-3.09375-1.28125-.800781-.808594-1.28125-1.871094-1.285156-3.09375.003906-4.472656-1.832031-8.566406-4.761719-11.488281-2.921875-2.933594-7.015625-4.765625-11.488281-4.761719-1.21875-.003906-2.285156-.484375-3.09375-1.285156-.800781-.804688-1.277344-1.867188-1.28125-3.09375.003906-1.222657.480469-2.285157 1.28125-3.09375.808594-.800781 1.871094-1.277344 3.09375-1.28125 4.472656.003906 8.566406-1.832031 11.488281-4.765625 2.933594-2.921875 4.765625-7.015625 4.761719-11.484375.003906-1.222657.484375-2.285157 1.285156-3.09375.804688-.800781 1.867188-1.28125 3.09375-1.28125 1.222657 0 2.285157.480469 3.09375 1.28125.796875.808593 1.277344 1.871093 1.28125 3.09375-.003906 4.472656 1.832031 8.5625 4.761719 11.484375 2.925781 2.933594 7.015625 4.769531 11.488281 4.765625 1.222657.003906 2.285157.480469 3.09375 1.28125.800781.808593 1.28125 1.871093 1.28125 3.09375 0 1.226562-.480469 2.289062-1.28125 3.09375zm0 0" fill="#122436"/><path d="m224.445312 120.746094h-140.757812c-29.976562 0-54.277344 24.300781-54.277344 54.277344v94.617187h249.3125v-94.617187c0-29.976563-24.296875-54.277344-54.277344-54.277344zm0 0" fill="#4ea3da"/><path d="m224.445312 120.746094h-140.757812c-29.976562 0-54.277344 24.300781-54.277344 54.277344v20.777343c0-29.976562 24.300782-54.277343 54.277344-54.277343h140.757812c29.976563 0 54.277344 24.296874 54.277344 54.277343v-20.777343c0-29.976563-24.296875-54.277344-54.277344-54.277344zm0 0" fill="#fff"/><path d="m224.445312 115.746094h-140.757812c-32.738281.003906-59.273438 26.539062-59.277344 59.277344v99.617187h259.3125v-99.617187c-.003906-32.742188-26.535156-59.277344-59.277344-59.277344zm49.277344 148.894531h-239.3125v-89.617187c.003906-13.625 5.511719-25.914063 14.433594-34.84375 8.933594-8.925782 21.21875-14.433594 34.84375-14.433594h140.757812c13.625 0 25.910157 5.507812 34.84375 14.433594 8.925782 8.933593 14.429688 21.21875 14.433594 34.84375zm0 0" fill="#122436"/><path d="m53.820312 269.640625h200.492188v100.414063h-200.492188zm0 0" fill="#4ea3da"/><path d="m227.019531 324.851562h10.132813v-10h-10.132813zm-22.289062 0h10.132812v-10h-10.132812zm-22.292969 0h10.132812v-10h-10.132812zm-22.292969 0h10.132813v-10h-10.132813zm-22.289062 0h10.132812v-10h-10.132812zm-22.292969 0h10.132812v-10h-10.132812zm-22.289062 0h10.128906v-10h-10.128906zm-22.292969 0h10.132812v-10h-10.132812zm0 0" fill="#fff"/><path d="m53.820312 269.640625h200.492188v20.773437h-200.492188zm0 0" fill="#fff"/><path d="m48.820312 264.640625v110.414063h210.492188v-110.414063zm10 10h190.492188v90.414063h-190.492188zm0 0" fill="#122436"/><path d="m5 370.058594h48.824219v-132.449219c0-13.480469-10.929688-24.410156-24.414063-24.410156-13.480468 0-24.410156 10.929687-24.410156 24.410156zm0 0" fill="#4ea3da"/><path d="m29.410156 213.199219c-13.480468 0-24.410156 10.929687-24.410156 24.410156v20.777344c0-13.484375 10.929688-24.414063 24.410156-24.414063 13.484375 0 24.414063 10.929688 24.414063 24.414063v-20.777344c-.003907-13.480469-10.929688-24.410156-24.414063-24.410156zm0 0" fill="#fff"/><path d="m29.410156 208.199219c-16.246094.003906-29.40624975 13.167969-29.410156 29.410156v137.449219h58.824219v-137.449219c-.003907-16.246094-13.167969-29.40625-29.414063-29.410156zm19.410156 156.859375h-38.820312v-127.449219c.003906-5.375 2.164062-10.199219 5.6875-13.726563 3.527344-3.519531 8.347656-5.679687 13.722656-5.683593 5.378906 0 10.199219 2.164062 13.726563 5.683593 3.519531 3.527344 5.683593 8.351563 5.6875 13.726563v127.449219zm0 0" fill="#122436"/><path d="m254.3125 370.058594h48.824219v-132.449219c0-13.480469-10.929688-24.410156-24.414063-24.410156-13.480468 0-24.410156 10.929687-24.410156 24.410156zm0 0" fill="#4ea3da"/><path d="m278.722656 213.199219c-13.480468 0-24.410156 10.929687-24.410156 24.410156v20.777344c0-13.484375 10.929688-24.414063 24.410156-24.414063 13.484375 0 24.414063 10.929688 24.414063 24.414063v-20.777344c0-13.480469-10.929688-24.410156-24.414063-24.410156zm0 0" fill="#fff"/><path d="m278.722656 208.199219c-16.246094.003906-29.410156 13.167969-29.410156 29.410156v137.449219h58.824219v-137.449219c-.003907-16.246094-13.167969-29.40625-29.414063-29.410156zm19.414063 156.859375h-38.824219v-127.449219c0-5.375 2.164062-10.199219 5.683594-13.726563 3.53125-3.519531 8.351562-5.679687 13.726562-5.683593 5.378906 0 10.199219 2.164062 13.726563 5.683593 3.519531 3.527344 5.683593 8.351563 5.6875 13.726563zm0 0" fill="#122436"/><path d="m111.996094 171.148438h83.105468v10h-83.105468zm0 0" fill="#fff"/><path d="m396.976562 310.992188h-119.503906c-5.6875 0-10.300781-4.609376-10.300781-10.300782 0-5.6875 4.613281-10.300781 10.300781-10.300781h119.503906c5.691407 0 10.304688 4.613281 10.304688 10.300781 0 5.691406-4.613281 10.300782-10.304688 10.300782zm0 0" fill="#4ea3da"/><path d="m277.472656 300.457031h119.503906c3.863282 0 7.226563 2.125 8.992188 5.265625.832031-1.488281 1.3125-3.203125 1.3125-5.03125 0-5.691406-4.613281-10.304687-10.304688-10.304687h-119.503906c-5.6875 0-10.300781 4.613281-10.300781 10.304687 0 1.828125.476563 3.542969 1.3125 5.03125 1.761719-3.144531 5.128906-5.265625 8.988281-5.265625zm0 0" fill="#fff"/><path d="m403.160156 370.058594h-131.867187l9.941406-59.066406h111.984375zm0 0" fill="#ffcc34"/><path d="m281.234375 324.414062h111.984375l7.683594 45.644532h2.257812l-9.941406-59.066406h-111.984375l-9.941406 59.066406h2.257812zm0 0" fill="#fff"/><path d="m321.203125 273.90625h32.050781v16.484375h-32.050781zm0 0" fill="#4ea3da"/><path d="m321.203125 273.90625h32.050781v8.386719h-32.050781zm0 0" fill="#fff"/><path d="m347.300781 273.90625h-20.148437v-112.421875c0-5.558594 4.511718-10.074219 10.074218-10.074219 5.566407 0 10.074219 4.511719 10.074219 10.074219zm0 0" fill="#ffcc34"/><path d="m337.226562 151.410156c-5.566406 0-10.074218 4.511719-10.074218 10.074219v15.101563c0-5.566407 4.507812-10.074219 10.074218-10.074219 5.5625 0 10.074219 4.507812 10.074219 10.074219v-15.101563c0-5.5625-4.511719-10.074219-10.074219-10.074219zm0 0" fill="#fff"/><path d="m399.105469 315.828125c3.367187-.472656 6.414062-2.03125 8.691406-4.316406 2.761719-2.753907 4.484375-6.613281 4.484375-10.820313 0-4.210937-1.722656-8.070312-4.484375-10.820312-2.753906-2.761719-6.609375-4.484375-10.820313-4.484375h-38.722656v-16.484375h-5.953125v-107.417969c0-4.144531-1.695312-7.945313-4.414062-10.660156-2.710938-2.71875-6.511719-4.417969-10.660157-4.414063-4.144531-.003906-7.945312 1.695313-10.65625 4.414063-2.71875 2.714843-4.417968 6.515625-4.414062 10.660156v107.417969h-5.953125v16.484375h-38.726563c-4.207031 0-8.066406 1.722656-10.820312 4.484375-2.761719 2.753906-4.480469 6.609375-4.480469 10.820312 0 4.207032 1.71875 8.066406 4.480469 10.820313 2.285156 2.285156 5.328125 3.84375 8.695312 4.3125l-9.96875 59.230469h143.6875l-.976562-5.828126zm-66.953125-154.34375c.003906-1.417969.5625-2.65625 1.488281-3.589844.933594-.925781 2.167969-1.484375 3.585937-1.484375 1.417969 0 2.65625.558594 3.589844 1.484375.925782.933594 1.484375 2.171875 1.484375 3.589844v107.417969h-10.144531v-107.417969zm-5.949219 117.421875h22.050781v6.484375h-22.050781zm-54.03125 21.785156c.003906-1.480468.585937-2.773437 1.554687-3.75.976563-.96875 2.269532-1.550781 3.746094-1.550781h119.503906c1.480469 0 2.773438.585937 3.746094 1.550781.96875.976563 1.550782 2.269532 1.554688 3.75 0 1.480469-.585938 2.773438-1.554688 3.75-.976562.964844-2.265625 1.546875-3.746094 1.550782h-119.503906c-1.480468-.003907-2.773437-.585938-3.75-1.550782-.964844-.976562-1.546875-2.269531-1.550781-3.75zm13.289063 15.300782h103.527343l8.257813 49.066406h-13.125v-26.59375h-10v26.59375h-10.949219v-26.59375h-10v26.59375h-10.949219v-26.59375h-10v26.59375h-10.945312v-26.59375h-10v26.59375h-10.949219v-26.59375h-10v26.59375h-13.125zm0 0" fill="#122436"/></svg>