<svg id="Capa_1" enable-background="new 0 0 512 512" height="512" viewBox="0 0 512 512" width="512" xmlns="http://www.w3.org/2000/svg"><g><g fill="#d5b97b"><path d="m472.591 511.306c-6.526 0-12.46-4.391-14.351-10.626-1.889-6.232.571-13.203 6.021-16.807 4.958-3.28 11.474-3.333 16.474-.118 5.333 3.429 7.934 10.081 6.391 16.215-1.655 6.579-7.739 11.336-14.535 11.336z"/><path d="m352.582 511.306c-6.251 0-12.019-4.049-14.11-9.933s-.265-12.668 4.6-16.631c4.85-3.953 11.852-4.493 17.222-1.259 5.353 3.223 8.252 9.626 6.999 15.77-1.412 6.914-7.62 12.053-14.711 12.053z"/><path d="m413.851 470.88c-6.18 0-11.846-3.939-14.032-9.694-2.183-5.747-.518-12.433 4.091-16.51 4.875-4.312 12.262-4.96 17.799-1.526 5.381 3.337 8.187 9.877 6.762 16.065-1.548 6.718-7.691 11.665-14.62 11.665z"/></g><g><g><path d="m405.908 367.261c-6.465.001-12.431-4.205-14.37-10.708-6.882-23.078-28.55-39.196-52.693-39.196-8.284 0-15-6.707-15-14.98v-217.523c0-30.27-24.659-54.895-54.97-54.895s-54.97 24.626-54.97 54.895v18.522c0 8.273-6.716 14.98-15 14.98s-15-6.707-15-14.98v-18.522c0-46.789 38.117-84.854 84.97-84.854s84.97 38.065 84.97 84.854v203.85c13.107 2.317 25.437 7.686 36.246 15.857 14.357 10.854 25.083 26.282 30.199 43.44 2.364 7.929-2.155 16.271-10.095 18.632-1.428.425-2.87.628-4.287.628z" fill="#de5958"/><g><path d="m457.04 412.204h-102.253c-5.402 0-9.782-4.38-9.782-9.782v-21.152c0-18.77 15.216-33.986 33.986-33.986h53.845c18.77 0 33.986 15.216 33.986 33.986v21.152c0 5.403-4.379 9.782-9.782 9.782z" fill="#457899"/><path d="m432.836 347.285h-26.922v64.92h51.127c5.402 0 9.782-4.374 9.782-9.769v-21.211c-.001-18.745-15.217-33.94-33.987-33.94z" fill="#2b495d"/></g></g><g><path d="m227.318 153.242-32.639 9.986-32.639-9.986v-49.904c0-8.273 6.716-14.98 15-14.98h35.278c8.284 0 15 6.707 15 14.98z" fill="#457899"/><g><g><g><path d="m212.318 486.328h-172.884c-8.284 0-15-6.707-15-14.98v-154.728l137.606-163.378h65.278v318.106c0 8.273-6.716 14.98-15 14.98z" fill="#9cd6f4"/><path d="m162.04 153.242-36.164 42.937v290.148h86.442c8.285 0 15-6.706 15-14.98v-318.105z" fill="#7fa6fb"/></g><g><path d="m24.434 286.8v29.82c14.588 13.995 34.374 22.625 56.151 22.625 44.734 0 81.128-36.345 81.128-81.018v-104.808c-.106-.062-.214-.116-.32-.177h-3.219c-73.863 0-133.74 59.796-133.74 133.558z" fill="#fbf4f4"/><path d="m161.393 153.242h-3.219c-11.137 0-21.953 1.368-32.297 3.93v168.242c21.604-14.571 35.837-39.25 35.837-67.186v-104.809c-.107-.062-.215-.116-.321-.177z" fill="#e2e9ee"/></g></g><g><g><ellipse cx="226.921" cy="451.294" fill="#457899" rx="60.789" ry="60.706"/><path d="m226.921 390.588v121.412c33.572 0 60.789-27.179 60.789-60.706s-27.216-60.706-60.789-60.706z" fill="#2b495d"/></g><g><path d="m226.921 482.041c-16.977 0-30.788-13.793-30.788-30.747s13.812-30.746 30.788-30.746 30.788 13.793 30.788 30.746c.001 16.954-13.811 30.747-30.788 30.747z" fill="#2b495d"/><path d="m226.921 420.547v61.494c16.977 0 30.788-13.793 30.788-30.747.001-16.954-13.811-30.747-30.788-30.747z" fill="#182831"/></g></g></g></g></g></g></svg>