<svg id="Capa_1" enable-background="new 0 0 512 512" height="512" viewBox="0 0 512 512" width="512" xmlns="http://www.w3.org/2000/svg"><g><g><path d="m511.697 328.599c.901 3.9-.3 7.8-2.401 11.1-2.999 3.9-7.5 6.301-12.299 6.301-20.7 0-44.798 14.399-71.797 31.199-42.301 26.1-94.5 58.801-169.2 58.801s-126.899-32.701-169.2-58.801c-26.999-16.8-51.223-31.199-71.923-31.199-4.799 0-9.3-2.401-12.299-6.301-2.1-3.3-3.301-7.2-2.1-11.1 70.498 21.601 94.122-117.599 255.522-117.599 161.7 0 184.898 139.499 255.697 117.599z" fill="#f3f5f9"/></g><path d="m425.2 377.199c26.999-16.8 51.097-31.199 71.797-31.199 4.799 0 9.3-2.401 12.299-6.301 2.1-3.3 3.301-7.2 2.401-11.1-70.799 21.9-93.997-117.599-255.697-117.599v225c74.7 0 126.899-32.701 169.2-58.801z" fill="#e2dff4"/><g><path d="m256 346c-24.814 0-45-20.186-45-45s20.186-45 45-45 45 20.186 45 45-20.186 45-45 45z" fill="#ffd9b3"/></g><path d="m301 301c0-24.814-20.186-45-45-45v90c24.814 0 45-20.186 45-45z" fill="#fb9"/><path d="m376 316c0 44.399-24 83.099-60 103.799l-60-43.799-60 43.799c-36-20.7-60-59.399-60-103.799 0-66.301 53.699-120 120-120s120 53.699 120 120z" fill="#80ecc6"/><path d="m316 419.799c36-20.7 60-59.399 60-103.799 0-66.301-53.699-120-120-120v180z" fill="#4fc6b9"/><g id="_Vision_2_"><g><g><g><path d="m66.186 245.102-38.936-29.649c-6.592-5.024-7.881-14.429-2.842-21.021 5.01-6.606 14.502-7.837 21.006-2.856l38.936 29.648c6.592 5.024 7.881 14.429 2.842 21.021-4.985 6.605-14.475 7.862-21.006 2.857z" fill="#4d5680"/></g></g></g><g><g><g><path d="m424.809 242.245c-5.039-6.592-3.75-15.996 2.842-21.021l38.936-29.648c6.504-4.98 15.996-3.75 21.006 2.856 5.039 6.592 3.75 15.996-2.842 21.021l-38.936 29.648c-6.551 5.021-16.032 3.735-21.006-2.856z" fill="#3d3d66"/></g></g></g><g><path d="m141.332 180.341-27.393-49.614c-4.014-7.251-1.377-16.377 5.889-20.376 7.178-3.999 16.377-1.377 20.361 5.874l27.393 49.614c4.014 7.251 1.377 16.377-5.889 20.376-7.128 3.975-16.331 1.449-20.361-5.874z" fill="#4d5680"/></g><g><g><g><path d="m350.307 186.215c-7.266-3.999-9.902-13.125-5.889-20.376l27.393-49.614c3.984-7.251 13.184-9.873 20.361-5.874 7.266 3.999 9.902 13.125 5.889 20.376l-27.393 49.614c-4.031 7.324-13.234 9.849-20.361 5.874z" fill="#3d3d66"/></g></g></g><g><path d="m256 166c-8.291 0-15-6.709-15-15v-60c0-8.291 6.709-15 15-15s15 6.709 15 15v60c0 8.291-6.709 15-15 15z" fill="#4d5680"/></g></g><g><path d="m256 346c-24.814 0-45-20.186-45-45s20.186-45 45-45 45 20.186 45 45-20.186 45-45 45z" fill="#ffd9b3"/></g><g><path d="m316 406v13.799c-17.701 10.201-38.101 16.201-60 16.201s-42.299-6-60-16.201v-13.799c0-33.001 27.001-60 60-60s60 26.999 60 60z" fill="#80a3ff"/></g><path d="m271 151v-60c0-8.291-6.709-15-15-15v90c8.291 0 15-6.709 15-15z" fill="#3d3d66"/><path d="m316 419.799v-13.799c0-33.001-27.001-60-60-60v90c21.899 0 42.299-6 60-16.201z" fill="#5c75e6"/><path d="m301 301c0-24.814-20.186-45-45-45v90c24.814 0 45-20.186 45-45z" fill="#fb9"/><path d="m511.097 326.199c-.599-1.8-66.398-190.199-255.097-190.199s-254.624 188.399-255.222 190.199c-.3.601-.601 1.501-.3 2.401 70.498 21.6 94.122-117.6 255.522-117.6 161.7 0 184.898 139.499 255.697 117.599 0-.899-.3-1.799-.6-2.4z" fill="#4d5680"/><path d="m511.697 328.599c0-.899-.3-1.8-.601-2.401-.598-1.799-66.397-190.198-255.096-190.198v75c161.7 0 184.898 139.499 255.697 117.599z" fill="#3d3d66"/></g></svg>